<svg width="32" height="32" viewBox="0 0 32 32" fill="none" xmlns="http://www.w3.org/2000/svg">
<path d="M24.929 8.95494H20.9032V8.28397C20.9032 6.80448 19.6988 5.6001 18.2194 5.6001H14.1935C12.7141 5.6001 11.5097 6.80448 11.5097 8.28397V8.95494H7.48387C6.00439 8.95494 4.8 10.1593 4.8 11.6388V14.8259C4.8 15.1211 4.99122 15.3795 5.26968 15.4667L5.47097 15.5304V23.7162C5.47097 25.1957 6.67535 26.4001 8.15484 26.4001H24.2581C25.7375 26.4001 26.9419 25.1957 26.9419 23.7162V15.5304L27.1432 15.4667C27.4217 15.3795 27.6129 15.1211 27.6129 14.8259V11.6388C27.6129 10.1593 26.4085 8.95494 24.929 8.95494ZM12.8516 8.28397C12.8516 7.54255 13.4521 6.94203 14.1935 6.94203H18.2194C18.9608 6.94203 19.5613 7.54255 19.5613 8.28397V8.95494H12.8516V8.28397ZM25.6 23.7162C25.6 24.4576 24.9995 25.0582 24.2581 25.0582H8.15484C7.41342 25.0582 6.8129 24.4576 6.8129 23.7162V15.9498L14.1935 18.2579V19.0195C14.1935 19.573 14.6465 20.0259 15.2 20.0259H17.2129C17.7665 20.0259 18.2194 19.573 18.2194 19.0195V18.2545L25.6 15.9464V23.7162ZM15.5355 18.684V17.342H16.8774V18.684H15.5355ZM26.271 14.3327L18.2026 16.8522C18.1288 16.3725 17.7161 16.0001 17.2129 16.0001H15.2C14.6968 16.0001 14.2841 16.3725 14.2103 16.8522L6.14193 14.3327V11.6388C6.14193 10.8974 6.74245 10.2969 7.48387 10.2969H24.929C25.6705 10.2969 26.271 10.8974 26.271 11.6388V14.3327Z" fill="#253A71"/>
</svg>
