<svg width="32" height="32" viewBox="0 0 32 32" fill="none" xmlns="http://www.w3.org/2000/svg">
<path d="M29.3571 11.4653L16.6407 5.69645C16.3579 5.56798 16.0329 5.56798 15.7501 5.69645L3.03284 11.4627C2.64744 11.6369 2.39999 12.0214 2.39999 12.4439C2.39999 12.8664 2.64744 13.2509 3.03198 13.4251L8.79999 16.0001V20.2863V25.3224C8.79999 25.9173 9.00509 26.4001 9.59999 26.4001C10.1949 26.4001 10.4 25.9173 10.4 25.3224V22.0001C12.0692 23.0701 14.1533 23.6001 16.1958 23.6001C19.0497 23.6001 20.8152 23.228 22.8 21.2001C22.9974 20.9992 23.2 20.282 23.2 20.0001V16.0001L29.3571 13.4294C29.7425 13.2535 29.9899 12.8698 29.9899 12.4465C29.9899 12.024 29.7425 11.6404 29.3571 11.4653ZM21.8483 19.8415C20.3102 21.2615 18.3194 22.0392 16.1958 22.0392C14.0688 22.0392 11.9399 21.4236 10.4 20.0001V16.8001L15.7483 19.1948C15.8897 19.2586 16.0423 19.2905 16.1941 19.2905C16.3458 19.2905 16.4984 19.2586 16.6398 19.1948L21.8492 16.8324L21.8483 19.8415ZM16.1941 17.6001L11.2 15.6001L16.4 12.8001C16.9389 12.5483 17.8518 12.139 17.6 11.6001C17.3474 11.0612 16.4508 11.2093 15.9119 11.4627L9.59999 14.8001L3.99999 12.4001L16.195 7.2001L28.4 12.4001L16.1941 17.6001Z" fill="#253A71"/>
</svg>
