<svg width="32" height="32" viewBox="0 0 32 32" fill="none" xmlns="http://www.w3.org/2000/svg">
<path d="M20.8732 19.5316C20.3308 18.944 19.472 18.8536 18.794 19.2604C17.6187 19.9836 17.3475 21.8369 18.2968 22.8765C18.8844 23.5545 19.7884 23.6901 20.5116 23.1929C21.6869 22.3341 21.8225 20.5712 20.8732 19.5316ZM20.0144 22.2437C19.698 22.5149 19.3364 22.5149 19.0652 22.1985C18.6132 21.6561 18.7036 20.7068 19.2008 20.2548C19.5624 19.9384 19.9692 19.9836 20.2404 20.3904C20.602 20.978 20.5116 21.7917 20.0144 22.2437Z" fill="#253A71"/>
<path d="M13.9574 22.2437C15.3587 19.9836 16.8051 17.7235 18.2064 15.4635C18.3872 15.1922 18.7488 15.3278 18.7488 15.3278C18.7488 15.3278 19.0648 15.3964 19.1556 15.5539C19.2438 15.7068 19.246 15.8703 19.1556 16.0059C18.6584 16.8195 18.116 17.6331 17.6188 18.4468C16.6695 19.9384 15.7655 21.4301 14.8163 22.9217C14.5903 23.2833 14.2684 23.0748 14.1835 23.0573C14.0985 23.0398 13.5958 22.7861 13.9574 22.2437Z" fill="#253A71"/>
<path d="M14.7257 15.6441C14.0477 14.7853 12.782 14.7853 12.104 15.6441C11.3808 16.5482 11.2904 17.7234 11.9232 18.7178C12.4204 19.5315 13.5052 19.7575 14.3189 19.2151C15.3585 18.4014 15.5845 16.729 14.7257 15.6441ZM13.7765 18.2658C13.46 18.537 13.1436 18.537 12.8272 18.2206C12.3752 17.6782 12.3752 16.7742 12.9176 16.2769C13.2792 15.9153 13.6409 15.9605 13.9573 16.3673C14.3641 16.9098 14.2737 17.8138 13.7765 18.2658Z" fill="#253A71"/>
<path d="M25.1351 14.3872L16.9639 6.21601C16.8247 6.07766 16.6365 6 16.4402 6C16.244 6 16.0557 6.07766 15.9165 6.21601L7.74533 14.3872L6.25965 15.8729C6.18189 15.9395 6.11874 16.0214 6.07415 16.1136C6.02956 16.2057 6.00451 16.3061 6.00055 16.4084C5.9966 16.5107 6.01384 16.6127 6.05119 16.7081C6.08853 16.8034 6.14518 16.89 6.21757 16.9624C6.28996 17.0348 6.37654 17.0914 6.47186 17.1287C6.56719 17.1661 6.6692 17.1833 6.77151 17.1794C6.87381 17.1754 6.97419 17.1504 7.06635 17.1058C7.15851 17.0612 7.24046 16.998 7.30705 16.9203L7.52248 16.7049V26.0572C7.52248 26.2542 7.60074 26.4431 7.74005 26.5824C7.87936 26.7217 8.0683 26.8 8.26531 26.8H24.6077C24.8047 26.8 24.9937 26.7217 25.133 26.5824C25.2723 26.4431 25.3505 26.2542 25.3505 26.0572V16.7049L25.566 16.9203C25.7081 17.042 25.8909 17.1056 26.0778 17.0983C26.2648 17.0911 26.4421 17.0136 26.5744 16.8813C26.7067 16.749 26.7842 16.5717 26.7914 16.3847C26.7987 16.1978 26.7351 16.015 26.6134 15.8729L25.1351 14.3872ZM23.8649 25.3143H19.4079C19.371 25.3137 18.6282 25.3137 18.6282 25.3137C18.2568 25.3137 18.0824 25.3137 17.8854 25.3137H14.914C14.717 25.3137 14.1712 25.3137 14.1712 25.3137C13.7998 25.3137 13.0569 25.3137 13.4284 25.3137H13.7998L9.00815 25.3143V15.2192L16.4365 7.79082L23.8649 15.2192V25.3143Z" fill="#253A71"/>
</svg>
