<svg width="32" height="32" viewBox="0 0 32 32" fill="none" xmlns="http://www.w3.org/2000/svg">
<path d="M28.7708 17.9609L24.7543 13.943V7.81923C24.7543 7.39939 24.4136 7.0587 23.9937 7.0587H21.2497C20.8298 7.0587 20.4891 7.39939 20.4891 7.81923V9.67782L16.6351 5.82273C16.4924 5.68004 16.2984 5.6001 16.0974 5.6001C15.8962 5.6001 15.7022 5.68031 15.5598 5.82273L3.42297 17.9609C3.12569 18.2579 3.12569 18.7391 3.42297 19.0362C3.71999 19.3334 4.20124 19.3334 4.49826 19.0362L16.0972 7.43592L20.7109 12.0505C20.7117 12.0513 20.7117 12.0513 20.7128 12.0513L27.6953 19.0364C27.8438 19.1852 28.0389 19.2583 28.2329 19.2583C28.427 19.2583 28.6221 19.1852 28.7706 19.0364C29.0678 18.7394 29.0678 18.2579 28.7708 17.9609ZM22.0102 8.57977H23.2332V12.4222L22.0102 11.1992V8.57977Z" fill="#253A71"/>
<path d="M23.9937 17.7334C23.5739 17.7334 23.2332 18.0741 23.2332 18.4939V24.8792H18.378V20.419C18.378 19.9991 18.0373 19.6584 17.6174 19.6584H14.5753C14.1554 19.6584 13.8148 19.9991 13.8148 20.419V24.8792H8.96034V18.4939C8.96034 18.0741 8.61965 17.7334 8.19981 17.7334C7.77996 17.7334 7.43927 18.0741 7.43927 18.4939V25.6397C7.43927 26.0596 7.77996 26.4003 8.19981 26.4003H14.575H17.6172H23.9935C24.4133 26.4003 24.754 26.0596 24.754 25.6397V18.4939C24.7543 18.0741 24.4136 17.7334 23.9937 17.7334ZM15.3358 24.8792V21.1795H16.8569V24.8792H15.3358Z" fill="#253A71"/>
</svg>
