<svg xmlns="http://www.w3.org/2000/svg" width="37" height="37" viewBox="0 0 37 37">
    <path fill="#475577" fill-rule="nonzero" stroke="#EFF3F6" stroke-width=".553" d="M17.546 35.821H5.732a2.475 2.475 0 0 1-2.475-2.475.893.893 0 1 1 1.786 0 .69.69 0 0 0 .69.69h11.813a.69.69 0 0 0 .69-.69.893.893 0 1 1 1.785 0 2.475 2.475 0 0 1-2.475 2.475zm2.74-4.739H2.979c-.987 0-1.786-.8-1.786-1.786v-2.939c0-2.28 1.848-4.13 4.128-4.132h12.633a4.132 4.132 0 0 1 4.117 4.132v2.95a1.786 1.786 0 0 1-1.785 1.775zM2.97 29.296h17.315v-2.939a2.343 2.343 0 0 0-2.34-2.34H5.321a2.343 2.343 0 0 0-2.339 2.34l-.01 2.94zM16.38 2.986a7.096 7.096 0 0 1 1.335 8.982 15.207 15.207 0 0 0-1.91 4.39c-.086.356-.168.738-.243 1.124a2.043 2.043 0 0 1 1.26 1.886v1.018a.893.893 0 0 1-1.785 0v-1.007a.254.254 0 0 0-.254-.254H8.5a.254.254 0 0 0-.254.254v1.017a.893.893 0 1 1-1.785 0V19.38c0-.826.498-1.57 1.26-1.886-.075-.386-.157-.76-.242-1.129a13.14 13.14 0 0 0-1.786-4.2 7.104 7.104 0 0 1 10.686-9.178zm-5.358 0a5.314 5.314 0 0 0-3.832 8.2 14.921 14.921 0 0 1 2.025 4.768c.107.446.2.914.293 1.385h4.268c.09-.471.186-.939.293-1.382a16.946 16.946 0 0 1 2.121-4.921 5.31 5.31 0 0 0-1-6.722 5.357 5.357 0 0 0-4.157-1.318l-.01-.01zm17.647 10.889l-2.086 2.09-.686-.68a.894.894 0 1 0-1.264 1.265l1.318 1.318a.893.893 0 0 0 1.264 0l2.715-2.729a.894.894 0 1 0-1.265-1.264h.004zm6.618 1.55a.736.736 0 0 0 0 .882 2.525 2.525 0 0 1-1.272 3.929.736.736 0 0 0-.518.714 2.5 2.5 0 0 1-.714 1.786 2.557 2.557 0 0 1-2.607.618.754.754 0 0 0-.84.275 2.525 2.525 0 0 1-4.117 0 .746.746 0 0 0-.84-.272 2.56 2.56 0 0 1-2.603-.621 2.5 2.5 0 0 1-.714-1.786.743.743 0 0 0-.518-.714 2.525 2.525 0 0 1-1.272-3.929.736.736 0 0 0 0-.882 2.525 2.525 0 0 1 1.272-3.929.736.736 0 0 0 .518-.714 2.5 2.5 0 0 1 .714-1.786 2.56 2.56 0 0 1 2.607-.617c.31.1.649-.011.84-.275a2.525 2.525 0 0 1 4.117 0 .75.75 0 0 0 .84.271 2.56 2.56 0 0 1 2.607.618 2.5 2.5 0 0 1 .714 1.786.736.736 0 0 0 .518.714 2.525 2.525 0 0 1 1.271 3.928l-.003.004zm-1.429-1.071a.74.74 0 0 0-.357-1.147 2.5 2.5 0 0 1-1.786-2.44.714.714 0 0 0-.21-.524.743.743 0 0 0-.765-.182 2.525 2.525 0 0 1-2.857-.932.74.74 0 0 0-1.203 0 2.525 2.525 0 0 1-2.858.932.743.743 0 0 0-.764.182.714.714 0 0 0-.21.525 2.5 2.5 0 0 1-1.786 2.44.74.74 0 0 0-.357 1.146 2.5 2.5 0 0 1 0 3.014.74.74 0 0 0 .357 1.146 2.5 2.5 0 0 1 1.785 2.44.74.74 0 0 0 .975.707 2.525 2.525 0 0 1 2.858.932.74.74 0 0 0 1.207 0 2.525 2.525 0 0 1 2.857-.932.74.74 0 0 0 .768-.182.714.714 0 0 0 .203-.522 2.5 2.5 0 0 1 1.786-2.44.74.74 0 0 0 .357-1.146 2.5 2.5 0 0 1 0-3.01v-.007z"/>
</svg>
