<svg xmlns="http://www.w3.org/2000/svg" xmlns:xlink="http://www.w3.org/1999/xlink" width="38" height="43" viewBox="0 0 38 43">
    <defs>
        <path id="a" d="M10.468 15.808c.17.434.478.773.89.977 0 0 .147.084.297.117a.098.098 0 0 1 .036.021l.004.005a.064.064 0 0 1 .016.039c.038 2.544 2.744 7.314 6.974 7.314s6.938-4.771 6.975-7.315c0-.013.007-.03.015-.04.002 0 .003 0 .004-.002a.083.083 0 0 1 .036-.022c.15-.033.3-.117.3-.117a1.81 1.81 0 0 0 .889-.978c.252-.646.433-2.136.477-2.606.151-1.607.032-2.456-.408-2.932l-.194-.21.005-.286c.005-.36.015-.701.024-1.015.068-2.378.127-4.431-2.324-5.745l-.228-.122-.095-.24C23.213.282 20.146.093 19.136.031L18.94.018C18.806.003 18.437 0 18.437 0c-2.867.082-4.906.802-6.213 2.202-1.821 1.95-1.739 4.644-1.663 7.022l.022.84-.192.212c-.43.472-.55 1.345-.4 2.921.034.383.212 1.934.477 2.61zm.682-4.545c.043-.152.202-.459.453-.445.374.028.641.936.742 1.176.061.144.194.075.182-.02 0 0-.231-3.471-.044-4.24.21-.855.348-1.227 1.012-1.893.557-.641 1.59-.87 2.306-.51l1.294.653c.827.496 2.164.492 2.99-.008l1.261-.649c.7-.36 1.746-.129 2.342.513 0 0 .665.65 1.075 1.893.363 1.025.082 4.241.082 4.241-.012.096.118.164.18.02.102-.24.369-1.148.741-1.176.253-.014.412.293.454.445.071.254.127.764.027 1.826-.087.922-.268 1.951-.402 2.296a.672.672 0 0 1-.464.421c-.636.185-.778.602-.807.831l-.022.17c-.008.06-.015.159-.018.22-.084 2.162-2.528 6.121-5.85 6.121-3.321 0-5.763-3.959-5.85-6.12a3.18 3.18 0 0 0-.038-.39c-.027-.23-.17-.647-.807-.832a.682.682 0 0 1-.464-.42c-.135-.346-.314-1.375-.402-2.297-.098-1.062-.044-1.572.027-1.826z"/>
        <filter id="b" width="117.1%" height="112.4%" x="-8.6%" y="-6.2%" filterUnits="objectBoundingBox">
            <feGaussianBlur in="SourceAlpha" result="shadowBlurInner1" stdDeviation="1"/>
            <feOffset dy="1" in="shadowBlurInner1" result="shadowOffsetInner1"/>
            <feComposite in="shadowOffsetInner1" in2="SourceAlpha" k2="-1" k3="1" operator="arithmetic" result="shadowInnerInner1"/>
            <feColorMatrix in="shadowInnerInner1" values="0 0 0 0 0.261426446 0 0 0 0 0.25906944 0 0 0 0 0.25906944 0 0 0 0.5 0"/>
        </filter>
        <path id="c" d="M19.505 26.302c-.49.249-1.16.249-1.612.02l-.53-.24c-.094.08-.097.1-.09.13.03.124.42.675.813 1.149.29.353.36.865.179 1.287-.134.308-.959 2.976-1.444 4.671l-.742 2.59-1.128-2.447c-.24-.523-2.848-7.573-3.103-9.37a15.041 15.041 0 0 1-3.104 1.344c-.845.264-1.641.45-2.915.73-.695.163-1.076.29-1.334.456-.594.343-1.457 2.524-2.207 5.652a71.628 71.628 0 0 0-.887 4.345 80.262 80.262 0 0 0-.317 1.965c-.136 1.01.418 1.795 1.878 1.795H34.41c1.46 0 2.015-.787 1.88-1.795a80.304 80.304 0 0 0-.317-1.964 71.665 71.665 0 0 0-.888-4.346c-.75-3.128-1.613-5.309-2.252-5.68-.213-.138-.594-.266-1.29-.43-1.274-.278-2.07-.465-2.914-.728a15.02 15.02 0 0 1-3.113-1.35c-.306 2.179-1.585 6.102-3.093 9.376l-1.127 2.447-.743-2.59c-.465-1.621-1.318-4.343-1.455-4.658a1.26 1.26 0 0 1 .178-1.306c.384-.462.774-1.017.805-1.142.008-.032.004-.051-.086-.131l-.49.22zm2.01 6.742c.051-.112 3.212-8.915 3.06-10.01-.037-.494.522-.436.867-.17 3.45 2.231 6.654 2.06 7.936 2.892 2.29 1.323 3.903 12.695 3.903 12.695.146 1.087-.35 2.928-2.871 2.928H2.962c-2.522 0-3.016-1.841-2.87-2.928 0 0 1.612-11.372 3.903-12.695 1.282-.832 4.485-.66 7.902-2.867.38-.29.937-.35.9.145-.101.73.92 4.066 3.062 10.01.91-3.005 1.406-4.603 1.489-4.794a.272.272 0 0 0-.036-.255c-.25-.302-.904-1.119-1.01-1.543-.134-.55.15-.925.586-1.275.179-.145.47-.204.676-.1l.74.334a.93.93 0 0 0 .747 0l.741-.334c.206-.104.497-.044.678.1.433.35.718.725.582 1.275-.104.424-.757 1.24-1.007 1.542a.264.264 0 0 0-.036.254c.127.292 1.473 4.682 1.505 4.796z"/>
        <filter id="d" width="110.7%" height="121.4%" x="-5.4%" y="-10.7%" filterUnits="objectBoundingBox">
            <feGaussianBlur in="SourceAlpha" result="shadowBlurInner1" stdDeviation="1.5"/>
            <feOffset dy="1" in="shadowBlurInner1" result="shadowOffsetInner1"/>
            <feComposite in="shadowOffsetInner1" in2="SourceAlpha" k2="-1" k3="1" operator="arithmetic" result="shadowInnerInner1"/>
            <feColorMatrix in="shadowInnerInner1" values="0 0 0 0 0.255978954 0 0 0 0 0.255978954 0 0 0 0 0.255978954 0 0 0 0.5 0"/>
        </filter>
        <path id="e" d="M15.56 16.108c1.407 0 2.552-1.154 2.552-2.573 0-.118-.009-.234-.024-.348a3 3 0 0 1 1.197.003 2.62 2.62 0 0 0-.024.345c0 1.418 1.144 2.573 2.55 2.573 1.407 0 2.551-1.154 2.551-2.573 0-1.42-1.144-2.573-2.55-2.573-.972 0-1.817.55-2.248 1.358a3.862 3.862 0 0 0-1.758-.004 2.55 2.55 0 0 0-2.246-1.354c-1.406 0-2.55 1.154-2.55 2.573s1.145 2.573 2.55 2.573zm6.251-4.235c.909 0 1.648.746 1.648 1.662 0 .916-.739 1.662-1.648 1.662a1.657 1.657 0 0 1-1.647-1.662c0-.916.74-1.662 1.647-1.662zm-6.25 0c.909 0 1.647.746 1.647 1.662 0 .916-.739 1.662-1.647 1.662a1.658 1.658 0 0 1-1.648-1.662c0-.916.74-1.662 1.648-1.662z"/>
        <filter id="f" width="135.2%" height="177.7%" x="-17.6%" y="-38.9%" filterUnits="objectBoundingBox">
            <feGaussianBlur in="SourceAlpha" result="shadowBlurInner1" stdDeviation="1.5"/>
            <feOffset dy="1" in="shadowBlurInner1" result="shadowOffsetInner1"/>
            <feComposite in="shadowOffsetInner1" in2="SourceAlpha" k2="-1" k3="1" operator="arithmetic" result="shadowInnerInner1"/>
            <feColorMatrix in="shadowInnerInner1" values="0 0 0 0 0.418207908 0 0 0 0 0.418207908 0 0 0 0 0.418207908 0 0 0 0.5 0"/>
        </filter>
        <path id="h" d="M18.203 39.862c-3.663 0-6.644-2.97-6.644-6.62 0-3.651 2.98-6.621 6.644-6.621s6.644 2.97 6.644 6.62c0 3.651-2.98 6.621-6.644 6.621z"/>
        <filter id="g" width="121.3%" height="121.4%" x="-10.6%" y="-10.7%" filterUnits="objectBoundingBox">
            <feGaussianBlur in="SourceAlpha" result="shadowBlurInner1" stdDeviation=".5"/>
            <feOffset dy="1" in="shadowBlurInner1" result="shadowOffsetInner1"/>
            <feComposite in="shadowOffsetInner1" in2="SourceAlpha" k2="-1" k3="1" operator="arithmetic" result="shadowInnerInner1"/>
            <feColorMatrix in="shadowInnerInner1" values="0 0 0 0 0.327327806 0 0 0 0 0.327327806 0 0 0 0 0.327327806 0 0 0 0.5 0"/>
        </filter>
        <path id="i" d="M21.789 30.734a.89.89 0 0 0-.632-.261.89.89 0 0 0-.632.26l-3.392 3.078-1.064-.806a.897.897 0 0 0-1.264 0 .889.889 0 0 0 0 1.259L16.5 35.7a.89.89 0 0 0 .632.26.89.89 0 0 0 .632-.26l4.023-3.706a.883.883 0 0 0 .262-.63.88.88 0 0 0-.261-.63z"/>
        <filter id="j" width="126.6%" height="136.4%" x="-13.3%" y="-18.2%" filterUnits="objectBoundingBox">
            <feGaussianBlur in="SourceAlpha" result="shadowBlurInner1" stdDeviation=".5"/>
            <feOffset dy="1" in="shadowBlurInner1" result="shadowOffsetInner1"/>
            <feComposite in="shadowOffsetInner1" in2="SourceAlpha" k2="-1" k3="1" operator="arithmetic" result="shadowInnerInner1"/>
            <feColorMatrix in="shadowInnerInner1" values="0 0 0 0 0.327327806 0 0 0 0 0.327327806 0 0 0 0 0.327327806 0 0 0 0.5 0"/>
        </filter>
    </defs>
    <g fill="none" fill-rule="evenodd">
        <g fill-rule="nonzero">
            <g>
                <use fill="#475577" fill-rule="evenodd" xlink:href="#a"/>
                <use fill="#000" filter="url(#b)" xlink:href="#a"/>
            </g>
            <g>
                <use fill="#475577" fill-rule="evenodd" xlink:href="#c"/>
                <use fill="#000" filter="url(#d)" xlink:href="#c"/>
            </g>
            <g>
                <use fill="#475577" fill-rule="evenodd" xlink:href="#e"/>
                <use fill="#000" filter="url(#f)" xlink:href="#e"/>
            </g>
        </g>
        <path fill="#FFF" d="M17.992 42.658c-4.963 0-9-4.241-9-9.455s4.037-9.455 9-9.455c4.962 0 8.998 4.241 8.998 9.455s-4.037 9.455-8.998 9.455z"/>
        <g>
            <use fill="#000" filter="url(#g)" xlink:href="#h"/>
            <use stroke="#475577" stroke-width=".828" xlink:href="#h"/>
        </g>
        <g>
            <use fill="#475577" xlink:href="#i"/>
            <use fill="#000" filter="url(#j)" xlink:href="#i"/>
        </g>
    </g>
</svg>
