<svg xmlns="http://www.w3.org/2000/svg" xmlns:xlink="http://www.w3.org/1999/xlink" width="31" height="37" viewBox="0 0 31 37">
    <defs>
        <path id="a" d="M20.34 9.98c0 .353-.233.588-.582.588H5.23c-.348 0-.58-.235-.58-.587 0-.353.232-.587.58-.587h14.528c.35 0 .582.234.582.587zM5.23 6.459c-.348 0-.58-.235-.58-.587s.232-.587.58-.587h14.528c.35 0 .582.235.582.587s-.233.587-.582.587H5.23zm0 7.045h8.717c.349 0 .581.235.581.587 0 .353-.232.587-.58.587H5.23c-.348 0-.58-.234-.58-.587 0-.352.232-.587.58-.587zm25.105 8.807c.116.176.058.41-.058.645l-1.162 1.35-.233 1.82c0 .236-.174.412-.407.47l-1.278.353v8.806c0 .235-.116.411-.349.529-.232.117-.465.058-.639-.118l-3.022-3.053-3.022 3.053a.525.525 0 0 1-.407.176c-.058 0-.174 0-.232-.058-.232-.06-.349-.294-.349-.529v-8.748-.058l-1.278-.353c-.233-.058-.349-.234-.407-.47l-.232-1.82-1.163-1.35c-.174-.176-.232-.41-.116-.645l.756-1.644-.233-1.82a.56.56 0 0 1 .233-.587l1.51-.998.756-1.644c.116-.235.29-.352.523-.352h1.802l1.51-.999a.624.624 0 0 1 .64 0l.348.235V1.174H1.162v27.594h15.69c.35 0 .582.235.582.587s-.232.587-.581.587H.58c-.349 0-.581-.235-.581-.587V.587C0 .235.232 0 .581 0h23.827c.348 0 .58.235.58.587v14.678h1.802c.233 0 .407.117.523.352l.756 1.644 1.51.998a.56.56 0 0 1 .233.587l-.232 1.82.755 1.644zm-6.741 9.628l2.383 2.407v-6.458l-.523.587a.656.656 0 0 1-.465.176h-.175l-1.046-.293v2.172c0 .352-.232.587-.58.587-.35 0-.582-.235-.582-.587v-2.23l-1.22.351c-.175.059-.407 0-.581-.176l-.465-.587v6.458l2.44-2.407a.558.558 0 0 1 .814 0zm4.475-8.278l.988-1.233-.64-1.468c-.058-.117-.058-.234-.058-.352l.233-1.585-1.337-.88a.456.456 0 0 1-.232-.236l-.64-1.467h-1.627c-.116 0-.174-.059-.29-.118l-1.337-.88-1.337.88a.442.442 0 0 1-.29.118h-1.627l-.64 1.467c-.058.06-.116.177-.232.235l-1.337.88.233 1.586c0 .118 0 .235-.058.352l-.64 1.468 1.047 1.233a.45.45 0 0 1 .116.294l.232 1.585 1.57.47c.116 0 .232.117.29.176l1.046 1.232 1.51-.47a.367.367 0 0 1 .35 0l1.51.47 1.046-1.232c.117-.06.175-.118.291-.177l1.511-.47.232-1.584a.45.45 0 0 1 .117-.294zm-4.824-5.46c1.918 0 3.487 1.585 3.487 3.523 0 1.937-1.569 3.522-3.487 3.522-1.917 0-3.487-1.585-3.487-3.522 0-1.938 1.57-3.523 3.487-3.523zm0 5.871c1.279 0 2.325-1.057 2.325-2.348 0-1.292-1.046-2.349-2.325-2.349-1.278 0-2.324 1.057-2.324 2.349 0 1.291 1.046 2.348 2.324 2.348z"/>
        <filter id="b" width="106.6%" height="105.5%" x="-3.3%" y="-2.8%" filterUnits="objectBoundingBox">
            <feGaussianBlur in="SourceAlpha" result="shadowBlurInner1" stdDeviation=".5"/>
            <feOffset dy="1" in="shadowBlurInner1" result="shadowOffsetInner1"/>
            <feComposite in="shadowOffsetInner1" in2="SourceAlpha" k2="-1" k3="1" operator="arithmetic" result="shadowInnerInner1"/>
            <feColorMatrix in="shadowInnerInner1" values="0 0 0 0 0.374176233 0 0 0 0 0.358777487 0 0 0 0 0.358777487 0 0 0 0.5 0"/>
        </filter>
    </defs>
    <g fill="none" fill-rule="nonzero">
        <use fill="#475577" fill-rule="evenodd" xlink:href="#a"/>
        <use fill="#000" filter="url(#b)" xlink:href="#a"/>
    </g>
</svg>
