<svg xmlns="http://www.w3.org/2000/svg" width="45" height="45" fill="none"><path d="M21.597 14.952c-4.72-3.367-11.278-2.27-14.646 2.45S4.68 28.68 9.4 32.048s11.278 2.27 14.646-2.45a10.51 10.51 0 0 0 1.327-2.521c1.152-3.175.7-6.718-1.192-9.485m.366 14.456c4.72 3.367 11.278 2.27 14.646-2.45s2.27-11.278-2.45-14.646-11.278-2.27-14.646 2.45a10.51 10.51 0 0 0-1.327 2.521c-1.152 3.175-.7 6.718 1.192 9.485" stroke="#9e9e9e" stroke-linecap="round"/><circle stroke="#236df1" cx="6.5" cy="12.5" r="2.5"/><circle stroke="#00a465" cx="39.5" cy="12.5" r="2.5"/></svg>