<svg xmlns="http://www.w3.org/2000/svg" width="48" height="48" viewBox="0 0 48 48">
    <g fill="none" fill-rule="evenodd">
        <path fill="#FFF" fill-rule="nonzero" d="M2.186 46.015L5.341 34.5a22.166 22.166 0 0 1-2.968-11.108C2.378 11.14 12.348 1.17 24.603 1.17c5.946.004 11.525 2.318 15.723 6.516 4.194 4.199 6.508 9.783 6.503 15.718-.004 12.257-9.978 22.222-22.225 22.222-.005 0 0 0 0 0h-.01c-3.722 0-7.376-.933-10.623-2.703L2.186 46.015z"/>
        <path fill="#FFF" fill-rule="nonzero" d="M2.186 46.6a.6.6 0 0 1-.416-.173.59.59 0 0 1-.147-.567L4.71 34.578a22.872 22.872 0 0 1-2.922-11.186C1.793 10.816 12.028.585 24.604.585 30.7.59 36.43 2.963 40.738 7.275a22.642 22.642 0 0 1 6.677 16.13c-.005 12.577-10.24 22.807-22.811 22.807-3.737 0-7.427-.92-10.706-2.666L2.337 46.578a.575.575 0 0 1-.151.023z"/>
        <path fill="#CFD8DC" fill-rule="nonzero" d="M24.604 1.17c5.945.005 11.524 2.32 15.722 6.517 4.194 4.199 6.508 9.783 6.503 15.718-.004 12.257-9.978 22.222-22.225 22.222h-.01c-3.722 0-7.376-.933-10.623-2.703L2.186 46.015 5.341 34.5a22.166 22.166 0 0 1-2.968-11.108C2.378 11.14 12.348 1.17 24.603 1.17zm0-1.17C11.703 0 1.207 10.49 1.203 23.392c0 3.942.992 7.824 2.88 11.263l-3.027 11.05c-.11.406.005.836.298 1.133.224.225.526.348.832.348.1 0 .201-.014.297-.041l11.342-2.973a23.49 23.49 0 0 0 10.77 2.63c12.905 0 23.4-10.496 23.405-23.392.005-6.251-2.428-12.128-6.846-16.55C36.736 2.437 30.855.005 24.604 0z"/>
        <path fill="#40C351" fill-rule="nonzero" d="M37.67 10.34a18.352 18.352 0 0 0-13.062-5.415c-10.189 0-18.48 8.282-18.485 18.467 0 3.49.98 6.887 2.827 9.828l.439.7-1.866 6.813 6.992-1.834.677.403a18.43 18.43 0 0 0 9.403 2.575h.009c10.18 0 18.466-8.287 18.47-18.472A18.335 18.335 0 0 0 37.67 10.34z"/>
        <path fill="#FFF" d="M19.047 14.104c-.416-.929-.855-.947-1.253-.96-.324-.014-.695-.014-1.065-.014-.366 0-.97.137-1.477.695-.513.553-1.949 1.898-1.949 4.632 0 2.73 1.994 5.374 2.269 5.744.279.366 3.846 6.156 9.489 8.383 4.692 1.847 5.648 1.482 6.663 1.39 1.02-.096 3.288-1.344 3.75-2.643.462-1.294.462-2.406.325-2.639-.137-.233-.508-.37-1.066-.65-.553-.278-3.283-1.618-3.796-1.806-.507-.183-.878-.274-1.248.28-.37.553-1.436 1.806-1.76 2.176-.325.37-.645.416-1.203.142-.554-.28-2.342-.864-4.464-2.758-1.65-1.472-2.767-3.288-3.091-3.846-.325-.553-.037-.855.242-1.134.252-.247.558-.65.837-.974.274-.325.366-.553.553-.924.183-.37.092-.695-.045-.974-.138-.279-1.217-3.023-1.71-4.12z"/>
    </g>
</svg>
