<svg id="Layer_1" data-name="Layer 1" xmlns="http://www.w3.org/2000/svg" viewBox="0 0 397.94 344.84"><defs><style>.cls-1{fill:#98bf5d;}.cls-2{fill:#869958;opacity:0.3;isolation:isolate;}.cls-3{fill:#76949e;}.cls-4{fill:#8b372f;}.cls-5{fill:#fff;}.cls-6{fill:#d1d1d1;}.cls-7{fill:#ffe3bd;}.cls-8{fill:#ddab85;}.cls-9{fill:#722d26;}.cls-10{fill:#a03f35;}.cls-11{fill:#b9493e;}.cls-12{fill:#91aeb5;}.cls-13{fill:#fcd3a7;}.cls-14{fill:#1c1c1c;}.cls-15{fill:#e33964;}.cls-16{fill:#f97da0;}.cls-17{fill:#cf9e76;}.cls-18{fill:#ecc19c;}.cls-19{fill:#888;}.cls-20{fill:#f0d0b4;}.cls-21{fill:#c2c2c2;}.cls-22{fill:#8285a8;}</style></defs><title>description-image</title><path class="cls-1" d="M394.93,140.5A163.87,163.87,0,0,0,208.8,10,164,164,0,0,1,389.33,178.11a181.14,181.14,0,0,1-14.13,46.07,163.21,163.21,0,0,0,1.11-66.67C359.4,68.51,272.87,9.92,184,27.27l-1.87.38A139.1,139.1,0,0,0,142.2,42.57h37.2a8.06,8.06,0,0,1,8.06,8.06h0a8.06,8.06,0,0,1-8.06,8.06H119.26a136.26,136.26,0,0,0-37.14,51.83A164,164,0,0,0,172.83,323.9q7.2,2.91,14.66,5.12A182.22,182.22,0,0,1,28.75,170.48,182.24,182.24,0,0,0,288.52,326.41C363.39,299.84,410.58,220.7,394.93,140.5ZM356.13,272c0.47-.79.93-1.59,1.39-2.38a182.17,182.17,0,0,0,13.77-21.74A164.93,164.93,0,0,1,356.13,272Z" transform="translate(-0.01)"/><path class="cls-2" d="M397.2,155.84q-4.69-4.32-9.76-8.2a164.19,164.19,0,0,1,1.93,30.48,181.14,181.14,0,0,1-14.17,46.06,164.2,164.2,0,0,0-4.26-87.41,140.11,140.11,0,0,0-190.77,53.55q-3.27,5.81-6,11.92a39.37,39.37,0,1,0-11.32,69.6,139.18,139.18,0,0,0,16.76,54.65c2.59,0.92,5.2,1.79,7.84,2.57-2.32-.28-4.64-0.62-7-1A140.23,140.23,0,0,0,190,342.65a183,183,0,0,0,98.44-16.22C358.61,301.54,404.44,230.59,397.2,155.84ZM356.2,272c0.47-.79.93-1.59,1.39-2.38a182.17,182.17,0,0,0,13.7-21.75A164.93,164.93,0,0,1,356.13,272h0.07Z" transform="translate(-0.01)"/><polygon class="cls-3" points="224.92 295.3 259.45 224.71 239.17 214.79 206.52 281.52 224.92 295.3"/><path class="cls-4" d="M312.62,150.84a9.82,9.82,0,0,1,4,4.13,14.34,14.34,0,0,1,1.2,6.74s-1.65-4.65-3.36-6.43a35.71,35.71,0,0,0-3.7-3.27Z" transform="translate(-0.01)"/><path class="cls-4" d="M313.82,146.84s5,2.31,7.81,5.25c3.79,4,3.79,10,3.79,10s-3.54-7.11-7.74-9.3a13.09,13.09,0,0,0-7.53-1.57Z" transform="translate(-0.01)"/><polygon class="cls-5" points="297.3 344.84 302.09 193.3 260.54 205.69 239.93 236.56 226.87 344.84 297.3 344.84"/><path class="cls-6" d="M235.26,344.84h51L289.49,287l-11.78-13.44a8.79,8.79,0,0,0-7.85,1.83c-3.93,3.14-9.68,3.4-12.56-.52s-7.33-7.07-11.25-6.54-3.14,40.83-3.14,40.83Z" transform="translate(-0.01)"/><path class="cls-7" d="M260.56,205.69l-1.65-24.78,40-47.82,3.14,60.21-1.9,11.54a24.75,24.75,0,0,1-26,20.59l-7.34-.48a8.3,8.3,0,0,1-7.74-8.83q0-.32.07-0.64Z" transform="translate(-0.01)"/><path class="cls-8" d="M300.84,170.7c-3.23,6.74-13,20.12-23,26.82-7.16,4.8-13.51,4.76-17.58,3.9l-1.36-20.5,16.24-19.39,24.64-12.69Z" transform="translate(-0.01)"/><path class="cls-4" d="M339.2,45.84a22.23,22.23,0,0,1-2.63,33.93A25,25,0,0,0,340,78.51a15.55,15.55,0,0,0,5.4-4.19s-2.71,8.65-10.9,11.52c-5.62,2-4-1.31-2.41-3.59A22.37,22.37,0,1,1,339.2,45.84Z" transform="translate(-0.01)"/><path class="cls-5" d="M211.27,270.84l21.48,16.07a1.79,1.79,0,0,1,.4,2.47l-4.74,6.69a1.82,1.82,0,0,1-2.54.41l-0.06,0-21.61-16.7a1.79,1.79,0,0,1-.33-2.51l0,0,4.82-6.06a1.82,1.82,0,0,1,2.55-.31h0Z" transform="translate(-0.01)"/><path class="cls-7" d="M206.54,281.52l-17.15-55a11.29,11.29,0,1,0-21.56,6.73h0L189,301.15a17.11,17.11,0,0,0,15.11,12q0.67,0,1.33,0a17.1,17.1,0,0,0,15.42-9.64l4.06-8.31Z" transform="translate(-0.01)"/><path class="cls-9" d="M339.64,65.1a37.36,37.36,0,0,0,5-10.42,22.13,22.13,0,0,1-8.07,25.09A25,25,0,0,0,340,78.51a15.55,15.55,0,0,0,5.4-4.19s-2.71,8.65-10.9,11.52c-5.62,2-4-1.31-2.41-3.59a22.39,22.39,0,0,1-6.19,1.62,37.18,37.18,0,0,1,.48-9.53S333,75.18,339.64,65.1Z" transform="translate(-0.01)"/><path class="cls-10" d="M307.54,45.92a22.38,22.38,0,0,1,30-1.59c0,1.88-.29,5.1-1.76,6.72-5.41,6-18.15,5.76-18.15,5.76s3.84,2.09,7,2.09a59.38,59.38,0,0,0,6.11-.35S325,62.91,315,61.87c-3.81-.4-9.34,0-14-0.5A22.29,22.29,0,0,1,307.54,45.92Z" transform="translate(-0.01)"/><path class="cls-11" d="M312.13,58.69S337.31,70.63,339,106.76c1.48,31.67-28.17,45.91-28.17,45.91l-5-78.37Z" transform="translate(-0.01)"/><path class="cls-7" d="M256.65,193.3h0c28.35,0,54.73-26.4,56-50.16l-0.47-84.45-1-1.83-66.13-1.13L224,85.84s-15,10.58-5.76,60.67C222.72,170.61,232.2,193.3,256.65,193.3Z" transform="translate(-0.01)"/><circle class="cls-4" cx="268.32" cy="128.82" r="5.1"/><circle class="cls-4" cx="228.91" cy="128.82" r="5.1"/><circle class="cls-5" cx="230.44" cy="127.29" r="1.95"/><path class="cls-4" d="M259.54,104a7.59,7.59,0,0,1,.5-1,11.75,11.75,0,0,1,1.79-2.33,10.91,10.91,0,0,1,3.49-2.4,9.9,9.9,0,0,1,2.35-.67,12.18,12.18,0,0,1,1.26-.11h1.25a19.78,19.78,0,0,1,2.42.32,14.91,14.91,0,0,1,2.29.67,10.91,10.91,0,0,1,2,1,9.33,9.33,0,0,1,1.61,1.18,8.76,8.76,0,0,1,1.87,2.29,4.78,4.78,0,0,1,.44,1,6.59,6.59,0,0,0-.69-0.84,11.52,11.52,0,0,0-2.16-1.77,7.17,7.17,0,0,0-.77-0.45,12.32,12.32,0,0,0-1.77-.81,10.3,10.3,0,0,0-1-.34,21.64,21.64,0,0,0-2.13-.5l-1.1-.16c-0.37-.06-0.78-0.05-1.17-0.1L269.43,99h-0.52a10.76,10.76,0,0,0-1.09.07,9.91,9.91,0,0,0-2.08.47,12.63,12.63,0,0,0-3.4,1.82,17.44,17.44,0,0,0-2.12,1.87Z" transform="translate(-0.01)"/><path class="cls-4" d="M237.12,104a10,10,0,0,0-.63-0.8,15,15,0,0,0-1.87-1.84,10.91,10.91,0,0,0-3.09-1.8,8.55,8.55,0,0,0-1.91-.49,9,9,0,0,0-2-.09c-0.73.08-1.49,0.08-2.14,0.21a16.46,16.46,0,0,0-2,.41,13.08,13.08,0,0,0-1.75.66,9.27,9.27,0,0,0-1.41.88,7.05,7.05,0,0,0-1,1,5.89,5.89,0,0,0-.64.93,4.4,4.4,0,0,0-.41.92,3.33,3.33,0,0,1,.11-1,4.69,4.69,0,0,1,.43-1.14,5.75,5.75,0,0,1,.91-1.32,8.77,8.77,0,0,1,.66-0.65c0.24-.21.52-0.39,0.79-0.59a9.65,9.65,0,0,1,.9-0.52,8.09,8.09,0,0,1,1-.42,11.14,11.14,0,0,1,2.18-.58,16,16,0,0,1,2.24-.25,10.4,10.4,0,0,1,2.37.16,9.92,9.92,0,0,1,2.17.72,9.8,9.8,0,0,1,3.17,2.4,10.53,10.53,0,0,1,1.54,2.27A6.88,6.88,0,0,1,237.12,104Z" transform="translate(-0.01)"/><path class="cls-4" d="M268.33,128.84s0.72-.07,1.69-0.24l0.77-.15a3.75,3.75,0,0,0,.83-0.21,9.89,9.89,0,0,0,1.68-.64,6,6,0,0,0,.79-0.43,8.15,8.15,0,0,0,.72-0.5c0.24-.16.43-0.37,0.65-0.54a7.21,7.21,0,0,0,.55-0.54c0.16-.18.35-0.33,0.47-0.49s0.25-.29.35-0.41,0.34-.36.34-0.36a2.35,2.35,0,0,1-.07.48,2.47,2.47,0,0,1-.12.56,3.29,3.29,0,0,1-.26.69,3.58,3.58,0,0,1-.41.78,5.3,5.3,0,0,1-.6.8,5.23,5.23,0,0,1-.81.72,5.15,5.15,0,0,1-1,.58,5.61,5.61,0,0,1-1,.39,6.22,6.22,0,0,1-2.91.11A4.61,4.61,0,0,1,268.33,128.84Z" transform="translate(-0.01)"/><circle class="cls-5" cx="269.84" cy="127.29" r="1.95"/><path class="cls-4" d="M228.93,128.84a4.61,4.61,0,0,1-1.67.62,6.22,6.22,0,0,1-2.91-.11,5.61,5.61,0,0,1-1-.39,5.15,5.15,0,0,1-1-.58,5.23,5.23,0,0,1-.81-0.72,5.29,5.29,0,0,1-.6-0.8,3.58,3.58,0,0,1-.41-0.78,3.29,3.29,0,0,1-.26-0.69c-0.06-.21-0.09-0.4-0.12-0.56-0.05-.31-0.07-0.48-0.07-0.48l0.34,0.36a4.12,4.12,0,0,1,.35.41c0.12,0.16.31,0.31,0.47,0.49a7.2,7.2,0,0,0,.55.54c0.22,0.17.4,0.38,0.65,0.54a8.15,8.15,0,0,0,.72.5,6,6,0,0,0,.79.43,7,7,0,0,0,.83.36c0.28,0.11.57,0.19,0.85,0.28a6.73,6.73,0,0,0,.83.21l0.77,0.15Z" transform="translate(-0.01)"/><path class="cls-12" d="M239.2,213.84l-12.59,44.69a29.38,29.38,0,0,0-.77,12.34l2.23,14.84,5.48-3Z" transform="translate(-0.01)"/><path class="cls-13" d="M299.46,135.33C298.77,113,288.3,94.84,288.3,94.84s10-5.08,24,1.39l0.26,46.89c-1.08,21-21.79,44-46.16,49.12C285.4,180.31,300.2,157.48,299.46,135.33Z" transform="translate(-0.01)"/><path class="cls-11" d="M312.13,58.69S281.07,76.75,280,84.78s13.61,10.47,21.64,21.29a72.44,72.44,0,0,1,11,22.08l3.13-42.31Z" transform="translate(-0.01)"/><path class="cls-11" d="M292.1,67.55a74.39,74.39,0,0,0-14.9,13.73s-15.81-4.81-29.8-3.54A51.07,51.07,0,0,0,224,85.84s-12.82-17.06,12-33c19.81-12.66,39.43-14,54.09-10.94a32.16,32.16,0,0,1,21,14.94S304.52,59.08,292.1,67.55Z" transform="translate(-0.01)"/><path class="cls-10" d="M307.1,94h0a19.54,19.54,0,0,0,2-.67h0a16.81,16.81,0,0,0,1.91-.88c0.5-.27,1-0.55,1.44-0.83l0.51-.32,0.77-.5,0.59-.41,0.52-.39,0.62-.48c5-4,5.92-7.87,5.92-7.87a25.54,25.54,0,0,1-1.4,9.6,21.86,21.86,0,0,1-3.32,6.28s8.38,3.84,13.26,0c3.25-2.56,4.1-8.36,4.26-13a66.6,66.6,0,0,1,4.74,22.32c1.48,31.67-28.17,45.91-28.17,45.91l-2.23-35a71,71,0,0,0-7-11.62c-4.18-5.63-10.15-9-14.78-12.06C286.89,94,298.2,96.45,307.1,94Z" transform="translate(-0.01)"/><path class="cls-12" d="M279.89,295.14l-5.17,49.7h48.87l-5-23.12L335,237.56a31,31,0,0,0-13.81-32.11L302.1,193.3l-15.74,39.77-1.16,11.4-6.69,23.76a29.38,29.38,0,0,0-.77,12.34Z" transform="translate(-0.01)"/><path class="cls-3" d="M321.2,344.84L312.49,318V294.23l-12.21-4.45s-5.41.17-6.28-2.44-1.57-14-1.57-14l-8.17,24.5-8.63,38.22-0.91,8.78H321.2Z" transform="translate(-0.01)"/><path class="cls-3" d="M277.34,324.79l-0.45-.83,3-28.82-2.19-14.57a29.38,29.38,0,0,1,.77-12.34L285,245l8.73-5.73,2.88,18.23L293.92,267c-2.1,7.61-4.63,17.44-4.43,20,0.35,4.36,1,18.53-1.74,25S275.63,336,275.63,336Z" transform="translate(-0.01)"/><path class="cls-12" d="M240.36,344.84l7.89-54.36-1.87-12.42a29.38,29.38,0,0,1,.77-12.34l9.66-34.29,3.74-25.74-0.45-6.85-20.9,15-16,103-4.61,28h21.77Z" transform="translate(-0.01)"/><path class="cls-12" d="M238,270.76a17.36,17.36,0,0,1-6.11.7c-3.66-.17-5.23-1.57-5.23-1.57s3.14,12.91,2.62,15.88S226,302,226,302l-3,21.29,20.45,1.55,0.92-20.41Z" transform="translate(-0.01)"/><path class="cls-3" d="M239.2,253l10.74-17.48,3,9.52h0l-5.74,20.72a29.38,29.38,0,0,0-.77,12.34l1.87,12.42L245.18,312s-5-19.91-7.45-31.25S239.2,253,239.2,253Z" transform="translate(-0.01)"/><polygon class="cls-3" points="308.23 197.47 297.34 236.91 285.01 245 286.34 233.07 302.09 193.3 308.23 197.47"/><polygon class="cls-3" points="256.52 201.4 248.83 231.85 252.98 245 256.8 231.43 260.54 205.69 260.08 198.82 256.52 201.4"/><path class="cls-13" d="M310.59,144.73l-0.76-23.25a12.22,12.22,0,1,1,.62,23.4Z" transform="translate(-0.01)"/><path class="cls-10" d="M303.13,108.12h0a47.37,47.37,0,0,1,6.18,20.56l0.33,5.24,4.68-28.23Z" transform="translate(-0.01)"/><path class="cls-10" d="M223.2,69.07c3.84-8,15-14.87,15-14.87s-7,8.72,0,10.82,36.29,2.79,45.54-6.11,2.79-13.78,2.79-13.78A47.26,47.26,0,0,1,300,49.32a25.49,25.49,0,0,1,9.2,8.31,111.92,111.92,0,0,0-17.09,9.92A74.39,74.39,0,0,0,277.2,81.28s-15.81-4.81-29.8-3.54A51.07,51.07,0,0,0,224,85.84a19.41,19.41,0,0,1-3.26-9.5A32.08,32.08,0,0,1,223.2,69.07Z" transform="translate(-0.01)"/><polygon class="cls-14" points="288.98 335.22 311.68 331.32 312.66 337 301.81 341.91 289.93 340.77 288.98 335.22"/><path class="cls-15" d="M253.2,181.65h0A14.68,14.68,0,0,1,238.52,167V154.43a1.75,1.75,0,0,1,1.75-1.75h25.85a1.75,1.75,0,0,1,1.75,1.75V167A14.68,14.68,0,0,1,253.2,181.65Z" transform="translate(-0.01)"/><path class="cls-5" d="M241.32,153.51h23.73a2.09,2.09,0,0,1,2.09,2.09v1.05a3.21,3.21,0,0,1-3.21,3.21H242.44a3.21,3.21,0,0,1-3.21-3.21h0v-1a2.09,2.09,0,0,1,2.09-2.09h0Z" transform="translate(-0.01)"/><path class="cls-16" d="M253.2,165.84h0a14,14,0,0,0-12.75,8.3,14.67,14.67,0,0,0,12.75,7.51h0A14.66,14.66,0,0,0,266,174.23,14,14,0,0,0,253.2,165.84Z" transform="translate(-0.01)"/><path class="cls-13" d="M224.94,295.3l-7.59-5.68a41,41,0,0,1-9.9,3.07c-8,1.48-14.43-1.5-17.25-4.33s-20.5-49.09-20.5-49.09h0L189,301.19a17.11,17.11,0,0,0,15.11,12q0.67,0,1.33,0a17.1,17.1,0,0,0,15.42-9.64Z" transform="translate(-0.01)"/><path class="cls-3" d="M327,219.15a11.29,11.29,0,0,0-13.95,7.77h0L294.2,293.3l20.76,9c0.36-.92.69-1.85,1-2.81l18.86-66.37a11.29,11.29,0,0,0-7.75-14h0Z" transform="translate(-0.01)"/><path class="cls-17" d="M193.58,299.84a18.92,18.92,0,0,0-3.4,4.11,17.06,17.06,0,0,0,10.09,8.48,7.14,7.14,0,0,0,.69-1.29c2-4.7,1.21-16,1.21-16A17.38,17.38,0,0,0,193.58,299.84Z" transform="translate(-0.01)"/><path class="cls-7" d="M285.2,299.65l-78.63-5a11.29,11.29,0,0,0-1.45,22.54l78.63,5q1,0.06,2,.06a31.56,31.56,0,0,0,29.22-20l-20.76-9A8.81,8.81,0,0,1,285.2,299.65Z" transform="translate(-0.01)"/><path class="cls-13" d="M285.75,322.25a31.56,31.56,0,0,0,29.22-20l-15.46-6.69a16.2,16.2,0,0,1,.08,7.77c-1.18,6.33-10.08,8.91-18.52,8.59-8-.3-76.76,2-83.23-14a11.28,11.28,0,0,0,7.3,19.2l78.63,5Q284.76,322.25,285.75,322.25Z" transform="translate(-0.01)"/><path class="cls-5" d="M295.8,282.14l24.85,10.1a1.79,1.79,0,0,1,1,2.29l-2.89,7.67a1.82,1.82,0,0,1-2.36,1l-0.06,0-25.08-10.66a1.79,1.79,0,0,1-1-2.34v0l3.13-7.09A1.82,1.82,0,0,1,295.8,282.14Z" transform="translate(-0.01)"/><path class="cls-18" d="M182.69,228.57h0a3.36,3.36,0,0,1-1.37-4.55h0l5.57-10.39a3.36,3.36,0,0,1,4.55-1.37h0a3.36,3.36,0,0,1,1.37,4.55h0L187.2,227.2A3.36,3.36,0,0,1,182.69,228.57Z" transform="translate(-0.01)"/><path class="cls-18" d="M179.54,219.3s1.46-7.63.63-12.34-5.44-8.12-7.32-5.1,1.57,4.37,1.88,8.66-2.44,12.86-2.44,12.86Z" transform="translate(-0.01)"/><path class="cls-19" d="M133.24,312.41h87.63a6.47,6.47,0,0,1,6.47,6.47h0v3.85h-94.1V312.41h0Z" transform="translate(-0.01)"/><path class="cls-19" d="M183.84,322.73H46.26L8.72,216.84H140.26a8.57,8.57,0,0,1,8.07,5.7Z" transform="translate(-0.01)"/><path class="cls-6" d="M172.2,322.73H34.63L0.41,226.17A7,7,0,0,1,7,216.84h121.6a8.57,8.57,0,0,1,8.07,5.7Z" transform="translate(-0.01)"/><ellipse class="cls-20" cx="177.1" cy="234.18" rx="7.19" ry="9.83" transform="translate(-56.65 56.5) rotate(-15.66)"/><ellipse class="cls-20" cx="226.87" cy="300.86" rx="3.91" ry="20.53" transform="translate(-91.33 502.7) rotate(-85.37)"/><path class="cls-5" d="M123.4,229H53.76a2.82,2.82,0,0,1-2.82-2.82h0a2.82,2.82,0,0,1,2.82-2.82H123.4a2.82,2.82,0,0,1,2.82,2.82h0A2.82,2.82,0,0,1,123.4,229h0Z" transform="translate(-0.01)"/><path class="cls-5" d="M41.2,229H14.34a2.82,2.82,0,0,1-2.82-2.82h0a2.82,2.82,0,0,1,2.82-2.82H41.2A2.82,2.82,0,0,1,44,226.2h0A2.82,2.82,0,0,1,41.2,229h0Z" transform="translate(-0.01)"/><path class="cls-21" d="M164.47,300.84s-50.8,5.39-90.95-8.19-64.05-41-64.05-41l25.16,71H172.2Z" transform="translate(-0.01)"/><rect class="cls-22" x="13.95" y="322.73" width="333.9" height="22.11" rx="3.68" ry="3.68"/><path class="cls-5" d="M183.64,194.08h0a2.35,2.35,0,0,1-2.44-2.24l-0.44-15.35a2.35,2.35,0,0,1,2.28-2.42h0a2.35,2.35,0,0,1,2.42,2.28h0l0.44,15.35A2.35,2.35,0,0,1,183.64,194.08Z" transform="translate(-0.01)"/><path class="cls-5" d="M196.58,200.5h0a2.35,2.35,0,0,0,3.28.54h0l12.49-8.94a2.35,2.35,0,0,0,.54-3.28h0a2.35,2.35,0,0,0-3.28-.54h0l-12.49,8.94a2.35,2.35,0,0,0-.54,3.28h0Z" transform="translate(-0.01)"/><path class="cls-5" d="M191.87,194.05h0a2.35,2.35,0,0,1-1-3.16l6.9-13.72a2.35,2.35,0,0,1,3.16-1h0a2.35,2.35,0,0,1,1,3.16L195,193.05A2.35,2.35,0,0,1,191.87,194.05Z" transform="translate(-0.01)"/><circle class="cls-1" cx="58.74" cy="124.51" r="42"/><circle class="cls-1" cx="126.2" cy="18.52" r="18.52"/><path class="cls-1" d="M143.3,74.84H69.61a8.06,8.06,0,0,1-8.06-8.06h0a8.06,8.06,0,0,1,8.06-8.06H143.3a8.06,8.06,0,0,1,8.06,8.06h0A8.06,8.06,0,0,1,143.3,74.84Z" transform="translate(-0.01)"/></svg>